<?xml version="1.0" standalone="no"?>
<!DOCTYPE svg PUBLIC "-//W3C//DTD SVG 20010904//EN"
 "http://www.w3.org/TR/2001/REC-SVG-20010904/DTD/svg10.dtd">
<svg version="1.0" xmlns="http://www.w3.org/2000/svg"
 width="600.000000pt" height="450.000000pt" viewBox="0 0 600.000000 450.000000"
 preserveAspectRatio="xMidYMid meet">
<metadata>
Created by potrace 1.16, written by Peter Selinger 2001-2019
</metadata>
<g transform="translate(0.000000,450.000000) scale(0.100000,-0.100000)"
fill="#000000" stroke="none">
<path d="M2770 4041 c-273 -73 -508 -214 -704 -422 -536 -570 -568 -1481 -74
-2134 85 -113 131 -163 238 -260 171 -154 391 -278 613 -345 83 -26 107 -37
107 -51 0 -9 -6 -20 -12 -22 -7 -3 -1 -6 14 -6 15 -1 31 6 36 15 8 14 16 13
78 -5 89 -27 288 -63 292 -54 1 5 7 15 12 23 9 13 11 13 21 0 16 -22 7 -1 -24
58 -31 59 -41 66 -33 22 3 -16 9 -43 12 -60 4 -22 2 -30 -9 -30 -15 0 -27 40
-27 87 0 16 -7 27 -20 30 -11 3 -20 8 -21 12 -2 18 -10 55 -12 56 -10 8 -77
12 -77 4 0 -5 3 -8 8 -8 4 1 19 1 35 0 l27 -1 0 -86 c0 -64 -3 -85 -12 -82 -7
3 -14 25 -16 50 -2 28 -10 52 -19 60 -14 11 -16 11 -8 -1 5 -10 4 -12 -3 -7
-7 4 -12 19 -12 33 0 15 -3 23 -7 19 -5 -4 -8 -27 -8 -51 0 -23 -7 -50 -14
-59 -18 -21 -60 -20 -91 1 -14 10 -32 18 -40 18 -11 0 -16 13 -18 44 -4 51 6
101 16 84 5 -8 15 -6 32 7 20 16 22 20 8 20 -10 0 -18 -4 -18 -10 0 -19 -21
-10 -30 14 -5 13 -14 26 -21 28 -8 3 -7 13 5 37 14 26 20 30 32 20 8 -6 14 -8
14 -3 0 5 5 1 11 -9 5 -9 8 -21 4 -26 -4 -8 39 -24 60 -22 2 0 23 -6 45 -14
30 -11 40 -11 40 -2 0 8 3 9 8 1 4 -6 14 -11 22 -12 8 0 33 -3 56 -6 23 -4 69
-8 103 -10 l61 -4 -21 34 c-11 19 -18 34 -16 34 3 0 15 -16 27 -35 17 -28 25
-33 39 -25 11 5 22 5 27 0 5 -5 15 -5 23 -1 10 7 3 26 -33 87 -25 43 -46 85
-46 92 0 7 -5 10 -12 6 -7 -5 -8 -3 -4 5 6 9 13 8 27 -5 10 -9 19 -22 19 -27
0 -17 74 -157 83 -157 5 0 7 3 5 8 -3 4 -11 22 -18 40 -8 17 -18 32 -22 32 -4
0 -8 8 -8 17 0 14 4 12 22 -7 12 -13 24 -32 25 -43 2 -11 8 -27 14 -36 8 -13
9 -11 5 9 -5 23 -4 24 9 6 11 -14 21 -17 42 -12 15 4 34 7 41 8 15 2 15 4 1
31 -10 22 -10 22 6 2 16 -20 55 -30 55 -13 0 5 5 6 10 3 17 -10 11 6 -20 62
-40 70 -30 69 12 -2 35 -59 36 -59 57 -46 10 7 11 14 2 32 l-12 24 17 -23 c16
-21 42 -32 29 -12 -3 6 1 7 9 4 22 -8 20 1 -9 43 -18 28 -22 41 -14 55 14 27
21 23 52 -32 29 -52 33 -55 56 -41 10 7 11 13 1 32 -11 24 -11 24 9 -1 28 -34
27 -7 -1 39 -13 19 -28 45 -33 56 -6 11 -20 21 -32 23 -20 3 -80 79 -70 88 3
3 15 -11 27 -31 12 -20 33 -41 46 -46 14 -5 37 -29 52 -55 38 -64 50 -80 55
-74 3 3 -13 35 -34 73 -28 46 -46 67 -60 67 -12 0 -30 18 -50 50 -28 45 -83
89 -96 77 -2 -3 8 -11 23 -19 15 -7 30 -20 32 -28 5 -13 3 -13 -11 -2 -14 12
-14 9 1 -22 10 -20 17 -51 17 -68 -1 -28 2 -33 22 -34 14 -1 25 -4 27 -5 24
-35 66 -108 66 -115 0 -5 -14 12 -30 38 -26 42 -55 68 -75 68 -4 0 -5 -6 -2
-13 3 -8 2 -19 -2 -26 -5 -8 -13 -1 -22 21 -14 35 -39 59 -51 52 -5 -3 -8 -1
-8 5 0 5 10 11 23 13 25 3 39 48 14 48 -10 0 -13 -7 -10 -20 3 -12 2 -20 -3
-19 -42 7 -45 -26 -9 -88 35 -58 25 -55 -14 6 -26 40 -30 53 -22 74 5 14 16
27 23 30 10 4 10 6 1 6 -7 1 -13 8 -13 17 0 8 -5 12 -10 9 -6 -4 -8 -15 -5
-25 3 -10 1 -21 -5 -25 -17 -11 -11 -46 16 -94 14 -25 18 -37 9 -26 -31 37
-54 91 -45 105 4 7 6 19 3 26 -2 7 0 21 5 31 7 13 6 24 -5 38 -15 20 -15 20
-10 -2 3 -13 -1 -44 -9 -69 -12 -42 -12 -49 4 -73 26 -36 34 -51 29 -51 -12 0
-58 84 -53 96 11 30 18 132 8 138 -5 3 -8 18 -6 33 1 15 -2 35 -7 45 -11 21 3
24 20 4 6 -7 37 -21 69 -30 31 -9 68 -23 82 -31 l25 -15 -30 6 c-16 4 -42 13
-57 20 -30 16 -58 19 -43 6 6 -5 30 -16 55 -25 35 -13 53 -28 78 -66 17 -27
41 -53 53 -56 11 -4 41 -39 66 -78 26 -40 48 -66 51 -59 2 7 -2 21 -10 30 -8
9 -25 36 -38 59 -13 23 -35 47 -51 53 -24 11 -79 77 -79 97 0 4 12 -10 27 -32
29 -43 43 -56 54 -49 9 5 39 -32 84 -104 18 -29 35 -50 38 -45 2 4 -13 37 -34
72 -22 35 -38 65 -36 67 2 2 17 -2 33 -10 16 -8 43 -17 59 -20 17 -4 23 -3 15
0 -8 4 -33 15 -54 25 -22 11 -48 17 -58 13 -10 -3 -18 0 -18 6 0 7 -8 10 -18
8 -20 -5 -47 26 -37 41 2 5 -5 11 -17 14 -12 4 -19 9 -15 13 15 15 -29 45 -95
65 -37 12 -68 25 -68 31 0 5 -4 6 -10 3 -5 -3 -10 -1 -10 4 0 6 5 11 11 11 5
0 7 5 3 12 -4 7 -3 8 4 4 7 -4 12 -2 12 5 0 9 3 9 14 -1 12 -9 17 -7 28 9 7
12 21 21 30 21 12 0 18 8 18 22 l0 22 15 -21 c8 -12 14 -31 13 -44 -2 -12 2
-24 8 -26 12 -4 11 35 -2 76 -5 16 -4 22 4 17 6 -3 20 6 31 20 l21 26 20 -46
c11 -26 26 -49 35 -52 8 -4 15 -13 15 -21 0 -11 7 -13 25 -9 20 5 27 2 35 -16
9 -22 9 -22 9 4 1 15 5 29 10 32 11 7 9 23 -7 56 l-13 25 17 -22 c9 -13 23
-23 31 -23 8 0 11 -4 8 -10 -3 -6 1 -7 9 -4 13 5 15 0 10 -25 -5 -21 -3 -31 6
-31 7 0 10 8 7 20 -7 29 -1 25 28 -17 14 -21 25 -32 25 -25 0 22 -51 102 -65
102 -7 0 -18 7 -25 15 -11 13 -8 13 16 5 28 -10 102 -102 116 -145 5 -18 6
-18 7 -1 1 10 -9 34 -20 53 -12 19 -19 37 -15 40 3 4 6 1 6 -5 0 -7 7 -12 15
-12 9 0 18 -7 21 -15 5 -11 10 -13 19 -5 15 12 25 -7 25 -47 0 -21 2 -24 15
-13 11 9 15 9 15 1 0 -6 7 -23 16 -36 l16 -25 20 25 c20 25 20 25 -1 61 -12
19 -21 39 -21 45 0 11 22 8 31 -5 12 -15 53 36 96 119 48 92 88 194 79 202 -3
3 -8 -3 -12 -13 -14 -44 -138 -284 -145 -284 -16 0 -10 18 21 63 53 78 127
263 117 290 -3 7 -6 5 -6 -6 -1 -16 -91 -208 -143 -304 -13 -25 -30 -43 -40
-43 -25 0 -22 15 6 33 51 34 170 312 148 347 -6 10 -7 21 -2 26 5 5 -2 26 -17
50 -24 38 -35 44 -117 70 -80 26 -91 32 -89 51 3 26 7 24 -234 80 -106 25
-163 42 -163 51 0 9 5 10 18 3 28 -15 384 -103 390 -96 13 12 -19 24 -133 50
-66 15 -133 31 -149 36 -16 5 -42 9 -57 9 -19 0 -29 5 -29 15 0 17 4 18 28 6
36 -20 342 -88 342 -77 0 10 -98 39 -235 68 -27 6 -63 14 -79 19 -16 5 -42 9
-57 9 -20 0 -29 5 -29 16 0 10 6 13 18 10 35 -11 373 -96 383 -96 5 0 9 4 9 9
0 8 -320 91 -353 91 -17 0 -22 11 -10 23 3 4 11 3 17 -2 6 -5 81 -25 166 -45
85 -21 161 -39 168 -41 6 -3 12 -1 12 3 0 8 -110 42 -135 42 -18 0 -19 12 -3
28 15 15 3 15 -24 1 -16 -8 -40 -8 -95 1 -40 7 -73 16 -73 20 0 13 13 20 24
11 24 -19 114 -33 136 -21 16 8 30 8 56 0 20 -7 38 -10 41 -7 6 7 -120 45
-196 59 -79 15 -83 17 -76 29 4 6 14 7 24 4 30 -13 212 -52 204 -45 -11 11
-112 40 -139 40 -22 0 -41 16 -31 26 3 3 26 -2 51 -10 25 -9 65 -18 89 -21 35
-5 29 -1 -32 20 -40 14 -83 25 -95 25 -27 0 -52 15 -38 24 5 3 32 -1 58 -9 27
-8 54 -15 59 -15 21 0 13 41 -12 68 -21 22 -24 23 -14 5 6 -12 16 -25 21 -28
17 -10 11 -25 -10 -25 -11 0 -20 6 -20 14 0 8 -7 16 -15 20 -8 3 -15 10 -15
16 0 6 -8 20 -19 31 -12 13 -22 46 -29 99 -21 165 -94 257 -274 344 -59 28
-107 57 -108 64 0 7 -4 10 -10 7 -16 -10 -11 87 9 210 11 63 15 114 10 119 -5
5 -10 8 -12 5 -4 -5 -50 -273 -54 -319 l-4 -35 77 -25 c148 -47 265 -136 310
-234 79 -172 8 -426 -137 -491 -21 -10 -39 -21 -39 -24 0 -3 16 -17 36 -30
101 -69 154 -172 154 -299 0 -136 -47 -256 -132 -341 -38 -38 -64 -54 -119
-71 -62 -20 -83 -22 -182 -17 -62 4 -138 13 -171 22 -32 9 -59 15 -61 13 -1
-2 -12 -64 -24 -138 -13 -74 -28 -138 -34 -142 -6 -3 -19 -2 -30 3 -10 6 -25
8 -32 5 -7 -2 -19 1 -25 9 -6 7 -22 16 -35 19 -16 4 -25 14 -25 25 0 18 1 18
61 0 34 -11 63 -18 65 -17 1 2 5 20 9 41 5 25 4 37 -4 37 -6 0 -11 7 -11 15 0
8 6 15 14 15 9 0 17 25 26 78 11 71 36 124 49 104 11 -16 162 -42 245 -42 230
0 350 110 381 347 16 123 -46 243 -164 318 -33 22 -60 46 -59 54 2 7 23 21 47
31 102 39 164 128 179 251 8 71 1 144 -15 160 -7 7 -9 2 -7 -18 4 -26 4 -26
-5 -5 -12 27 -67 82 -83 82 -5 0 -8 9 -5 19 3 13 1 18 -8 15 -7 -3 -16 4 -20
15 -3 12 -11 21 -16 21 -5 0 -9 7 -9 15 0 8 -10 24 -22 36 l-23 21 23 -12 c44
-22 34 -2 -13 25 -41 24 -49 26 -70 15 -30 -16 -53 -8 -57 22 -2 16 -13 25
-38 32 -39 11 -52 24 -46 46 12 41 16 104 8 91 -13 -19 -35 -3 -29 20 3 11 1
17 -4 13 -5 -3 -9 0 -9 6 0 6 -21 -13 -46 -41 -36 -40 -45 -57 -41 -77 3 -14
-2 -41 -11 -59 -13 -27 -14 -41 -4 -81 6 -27 9 -57 6 -68 -4 -15 6 -24 48 -44
108 -51 148 -107 148 -205 0 -119 -61 -183 -185 -193 -71 -5 -75 -9 -75 -94 0
-26 -5 -50 -10 -53 -17 -11 9 -35 37 -35 13 0 22 -4 19 -8 -4 -7 64 -48 91
-55 16 -4 64 -66 83 -108 27 -59 26 -125 -3 -179 -28 -54 -76 -80 -157 -87
-53 -5 -60 -8 -55 -24 4 -13 1 -19 -8 -19 -9 0 -17 -6 -20 -12 -2 -8 -8 -9
-13 -4 -5 5 -4 11 4 13 6 3 12 13 12 24 0 21 -25 30 -89 32 -21 1 -37 5 -35 9
2 4 0 9 -6 13 -5 3 -10 -1 -10 -9 0 -10 -6 -13 -15 -10 -22 9 -18 -9 5 -24 21
-13 28 -42 10 -42 -5 0 -10 -4 -10 -9 0 -6 12 -6 32 0 42 12 44 11 30 -3 -17
-17 -15 -28 6 -29 10 0 12 -3 5 -6 -7 -2 -13 -13 -13 -24 0 -14 -7 -19 -25
-19 -28 0 -34 -24 -10 -37 9 -5 12 -17 8 -31 -6 -26 -13 -27 -39 -6 -13 11
-15 17 -6 20 6 3 12 15 12 25 0 11 -4 18 -8 15 -5 -3 -9 21 -9 52 -1 64 -4 84
-16 93 -4 3 -9 23 -11 44 -2 22 -9 41 -15 43 -6 2 -11 25 -11 50 0 42 4 50 34
75 19 15 40 27 45 27 15 0 14 17 -1 22 -7 3 -20 -5 -30 -16 -15 -18 -19 -19
-28 -6 -14 22 -13 24 22 59 19 19 26 31 17 31 -12 0 -21 18 -46 93 -4 12 0 17
12 17 9 0 15 6 13 13 -6 17 -39 21 -49 6 -4 -7 -11 -11 -14 -7 -10 10 27 59
41 54 16 -6 46 27 40 45 -2 8 -7 55 -10 105 -6 92 -6 92 19 98 26 7 32 20 14
31 -5 4 -18 0 -27 -7 -26 -22 -46 -33 -38 -20 3 6 2 13 -4 17 -5 3 -10 13 -10
21 0 8 5 12 10 9 6 -4 8 -10 5 -15 -3 -4 1 -10 8 -13 9 -3 11 11 9 56 l-4 60
-15 -31 c-9 -18 -19 -32 -24 -32 -5 0 -9 -20 -9 -45 0 -48 -4 -52 -34 -30 -16
12 -19 26 -17 80 2 66 -3 90 -19 80 -4 -3 -3 -19 3 -35 9 -23 9 -33 0 -38 -6
-4 -13 -35 -14 -69 l-4 -61 38 -6 c25 -4 37 -11 37 -22 0 -14 -8 -15 -47 -9
-27 4 -51 9 -55 11 -3 2 -4 48 -2 102 2 53 1 91 -2 84 -4 -9 -13 -7 -35 9 -16
11 -27 25 -24 30 6 9 -21 14 -57 11 -19 -2 -32 27 -22 51 3 10 -7 29 -28 52
-18 20 -46 51 -63 69 -16 18 -55 59 -85 92 -80 87 -101 114 -89 114 7 0 0 9
-14 20 -14 11 -34 20 -45 20 -17 0 -20 -10 -25 -82 -8 -96 -6 -98 73 -98 37 0
66 -7 88 -20 62 -38 62 -37 41 -518 -10 -240 -23 -442 -29 -452 -15 -28 -52
-34 -117 -21 -31 6 -57 10 -59 8 -3 -4 -34 -160 -32 -162 2 -1 72 -13 157 -28
84 -15 158 -30 163 -33 5 -3 6 -67 2 -148 l-7 -143 52 -7 c28 -4 58 -9 66 -12
9 -4 15 0 15 9 0 10 -15 17 -45 21 -25 4 -46 10 -46 14 -7 33 -5 73 3 78 6 4
5 10 -3 15 -10 6 -10 9 -2 9 6 0 15 -4 18 -10 10 -15 32 -12 39 6 4 9 1 23 -6
32 -11 13 -10 14 1 11 8 -3 23 3 33 13 21 21 37 75 19 64 -6 -4 -11 -15 -11
-25 0 -24 -19 -39 -47 -36 -22 2 -38 -19 -28 -36 4 -5 -1 -6 -9 -3 -9 3 -16 9
-16 13 0 15 39 86 40 72 0 -8 3 -11 6 -8 4 4 1 13 -6 22 -7 9 -10 18 -7 21 2
3 -5 15 -17 28 -14 15 -42 27 -86 35 -113 21 -120 22 -120 31 0 5 8 11 18 13
15 4 15 5 -1 6 -40 2 -8 26 39 29 27 2 52 9 56 15 6 9 8 9 8 0 0 -7 7 -10 15
-7 8 4 15 1 15 -4 0 -6 -10 -13 -22 -15 -20 -4 -19 -4 5 -6 15 0 27 4 27 9 0
6 5 10 11 10 6 0 9 -6 6 -14 -3 -8 0 -22 7 -31 10 -15 12 -12 8 18 -3 24 1 36
11 40 27 10 56 -4 66 -34 12 -34 40 -38 59 -9 17 28 27 25 28 -11 1 -17 6 -34
11 -38 5 -3 13 -15 17 -25 9 -25 20 -12 39 43 14 44 15 44 27 21 16 -31 20
-110 6 -110 -25 0 -86 22 -86 30 0 6 -12 10 -26 10 -24 0 -25 -2 -13 -17 12
-15 12 -16 -1 -8 -12 6 -13 5 -3 -5 7 -7 41 -18 75 -25 58 -10 63 -13 69 -41
3 -16 1 -40 -3 -53 -5 -13 -6 -43 -3 -65 7 -46 -29 -161 -47 -150 -6 4 -8 -7
-4 -32 16 -92 18 -84 -22 -80 -21 2 -27 1 -14 -1 19 -4 27 -20 23 -45 0 -5 3
-8 8 -8 14 0 21 28 8 34 -7 2 -5 5 4 5 13 1 18 -10 21 -39 4 -45 -7 -63 -31
-51 -9 5 -34 11 -56 14 -30 5 -34 4 -15 -2 14 -5 37 -12 53 -15 15 -4 27 -11
27 -16 0 -11 -59 -2 -77 13 -9 6 -13 6 -13 -1 0 -6 18 -16 40 -22 22 -6 40
-15 40 -20 0 -14 -14 -12 -28 2 -9 9 -12 8 -12 -4 0 -9 6 -18 14 -21 9 -4 12
-17 9 -42 -2 -21 0 -42 5 -49 5 -6 12 -27 15 -46 6 -33 6 -34 -9 -15 -8 11
-13 28 -10 38 2 9 0 17 -5 17 -18 0 -13 -61 7 -76 19 -15 18 -38 -2 -30 -9 3
-22 6 -30 6 -8 0 -19 11 -24 25 -5 14 -21 30 -35 35 -27 10 -34 47 -14 67 8 8
8 13 0 18 -12 7 -15 1 -28 -60 -8 -36 -12 -40 -38 -38 -15 1 -33 7 -39 13 -8
9 -6 11 9 8 16 -2 20 2 20 22 -1 21 -5 25 -29 23 -20 -1 -26 2 -22 12 14 37
26 96 22 104 -3 5 -16 11 -28 14 l-23 6 21 -15 22 -15 -21 -65 c-12 -35 -26
-64 -32 -64 -31 0 -250 128 -305 179 -10 9 -30 26 -45 39 -15 12 -22 22 -15
22 6 0 8 5 5 11 -4 6 -13 8 -20 5 -15 -6 -91 62 -87 78 2 6 1 8 -3 4 -10 -9
-34 15 -27 26 3 5 0 6 -5 3 -6 -4 -19 3 -29 14 -15 16 -16 21 -4 19 25 -4 40
0 40 9 0 5 -9 7 -20 4 -23 -6 -77 32 -59 42 6 4 16 2 22 -4 6 -6 18 -11 26
-11 11 0 11 4 -4 20 -10 12 -15 26 -11 37 4 11 -3 8 -20 -10 -25 -27 -27 -27
-45 -11 -23 21 -24 28 -4 20 9 -3 24 4 37 19 22 25 48 33 48 15 0 -5 12 -21
26 -35 18 -18 24 -33 21 -47 -6 -19 -5 -20 10 -5 10 10 13 22 8 34 -5 10 -7
21 -7 26 1 4 -3 7 -9 7 -5 0 -7 4 -4 10 4 6 -1 7 -11 3 -14 -5 -16 -3 -11 11
4 10 3 15 -3 11 -6 -3 -10 0 -10 8 0 8 -12 28 -27 45 -16 17 -29 35 -30 40 -6
25 -82 122 -86 110 -3 -7 -5 -4 -4 7 1 11 -17 58 -39 105 -196 406 -199 892
-7 1275 49 99 95 172 160 253 46 58 50 67 31 78 -8 5 -9 1 -4 -12 7 -18 6 -18
-10 -2 -10 10 -17 31 -16 51 1 24 -5 40 -20 53 -21 19 -21 19 -7 -3 10 -17 10
-27 1 -47 -7 -16 -8 -28 -2 -31 14 -9 12 -22 -5 -28 -8 -4 -17 -1 -21 5 -4 7
-3 8 4 4 19 -12 14 9 -7 28 -18 16 -20 16 -29 1 -8 -16 -9 -16 -16 0 -3 10 -4
20 -1 23 3 3 5 0 5 -7 0 -7 5 -9 11 -6 7 5 5 13 -6 25 -11 12 -13 20 -5 25 5
3 16 21 24 38 13 32 125 147 201 208 188 149 443 264 675 302 22 4 21 4 -5 5
-16 1 -77 -12 -135 -27z m227 -1739 c7 -5 9 -13 3 -21 -6 -10 -20 -12 -50 -8
l-42 5 5 -43 c3 -33 0 -49 -14 -63 -13 -15 -15 -22 -6 -31 9 -9 8 -15 -5 -22
-10 -6 -18 -18 -17 -27 0 -11 3 -12 6 -4 2 6 9 10 14 7 4 -3 6 -48 3 -100 l-6
-95 26 0 c24 0 46 -23 34 -36 -3 -2 -24 -2 -47 2 -40 6 -41 8 -41 45 0 21 -4
49 -9 63 -7 18 -6 28 5 36 17 15 18 52 2 68 -10 10 -10 17 1 34 8 12 16 62 19
110 l5 88 51 0 c28 0 56 -4 63 -8z m115 -1039 c9 -22 12 -24 15 -10 7 26 18
21 31 -16 6 -18 19 -42 27 -52 16 -20 16 -19 10 2 -25 93 -9 96 39 8 20 -36
43 -77 52 -90 9 -14 14 -25 11 -25 -3 0 -15 16 -27 36 -23 37 -40 41 -20 5 18
-36 3 -23 -19 15 -23 39 -40 41 -21 2 11 -22 11 -22 -9 2 -23 28 -27 23 -10
-14 9 -19 8 -29 -4 -46 -15 -22 -15 -22 -26 -2 -9 16 -7 24 4 36 13 12 14 20
4 37 -7 15 -8 19 0 15 15 -10 14 -3 -6 39 -10 21 -22 34 -30 31 -7 -3 -19 5
-28 17 -8 12 -15 17 -15 11 0 -6 3 -14 8 -18 4 -4 8 -25 8 -47 2 -61 3 -64 20
-85 15 -19 16 -19 9 1 -4 11 -9 31 -10 45 -1 14 -6 34 -10 45 -11 27 -3 18 25
-30 20 -33 21 -38 5 -25 -17 14 -18 13 -11 -5 5 -11 9 -32 11 -47 1 -15 8 -34
15 -43 7 -8 10 -15 7 -15 -3 0 -24 28 -46 61 -29 43 -39 68 -35 82 4 14 3 17
-6 12 -10 -6 -11 -1 -6 19 5 20 3 26 -5 21 -8 -6 -8 -2 0 14 10 18 9 20 -6 14
-16 -6 -16 -5 -4 10 20 25 40 21 53 -10z"/>
<path d="M2796 3760 c-122 -33 -244 -84 -336 -142 l-45 -29 -5 -96 c-3 -57 -1
-102 5 -110 7 -9 9 19 7 88 -2 63 1 106 7 112 8 8 11 5 12 -8 1 -16 3 -15 10
5 6 16 7 -9 5 -73 -6 -126 4 -119 13 9 9 139 27 133 24 -8 -2 -61 0 -108 4
-104 4 4 7 44 6 89 l0 82 7 -70 c7 -69 7 -69 6 27 -1 110 11 120 17 13 3 -70
3 -70 5 17 2 73 4 86 17 82 9 -4 15 0 15 9 0 22 86 57 250 102 47 13 76 23 65
23 -11 0 -51 -8 -89 -18z"/>
<path d="M2272 3480 l-33 -30 -2 -110 c-1 -61 -6 -110 -10 -110 -5 0 -7 45 -5
100 2 55 0 100 -4 100 -5 0 -9 -28 -9 -62 -1 -35 -3 -88 -5 -118 l-2 -55 37
-2 c31 -2 43 3 68 30 l31 32 -8 95 -8 95 1 -95 c0 -52 -4 -94 -9 -93 -5 2 -9
50 -9 107 0 57 -3 102 -7 99 -5 -2 -8 -59 -8 -125 0 -67 -3 -118 -7 -115 -3 4
-5 60 -4 125 2 101 5 120 22 135 10 10 19 20 19 22 0 12 -17 2 -48 -25z"/>
<path d="M2973 3392 c-1 -42 -4 -114 -8 -159 -5 -71 -4 -83 9 -83 13 0 16 13
16 64 0 63 12 88 31 69 7 -7 21 0 40 19 29 29 37 48 21 48 -5 0 -9 6 -9 14 0
8 6 12 13 9 11 -4 44 32 44 48 0 11 -50 17 -56 7 -4 -7 -9 -6 -13 1 -4 6 -8
-8 -8 -31 -2 -31 -8 -47 -25 -60 l-23 -17 -5 71 c-7 98 -25 98 -27 0z"/>
<path d="M3070 3225 c0 -63 -1 -65 -20 -55 -11 6 -21 7 -21 3 -1 -4 -2 -15 -3
-23 0 -8 -13 -17 -27 -20 -27 -5 -27 -5 -12 -43 9 -21 21 -36 27 -34 6 3 20
-3 30 -12 18 -15 19 -15 12 21 -5 30 -2 44 15 67 12 17 26 28 31 25 4 -3 8 2
8 10 0 9 5 16 10 16 16 0 32 50 21 64 -5 6 -23 19 -40 29 l-31 18 0 -66z"/>
<path d="M2036 3194 c-4 -10 0 -24 9 -34 24 -27 17 -36 -9 -11 -20 19 -24 20
-30 6 -6 -17 68 -120 94 -129 8 -3 59 -7 112 -8 74 -2 98 -6 98 -17 0 -8 -6
-11 -16 -7 -9 3 -59 9 -112 12 l-97 7 -44 54 c-30 36 -47 50 -52 42 -8 -14 39
-79 59 -79 6 0 12 -7 12 -15 0 -19 -9 -19 -30 0 -15 14 -16 12 -12 -15 3 -19
0 -30 -8 -30 -7 0 -10 8 -8 18 3 10 -5 31 -18 47 l-23 29 -11 -29 c-6 -17 -13
-36 -15 -42 -6 -18 14 -16 21 2 8 19 24 20 24 1 0 -8 -10 -22 -22 -30 -22 -16
-21 -16 18 -16 28 0 47 6 59 20 19 21 65 28 65 10 0 -5 -10 -10 -22 -10 -13
-1 -34 -10 -47 -21 l-24 -20 27 -28 c14 -15 23 -30 19 -34 -11 -12 -23 -8 -23
7 0 29 -30 46 -81 46 -44 0 -49 -2 -49 -22 0 -17 3 -19 9 -9 11 17 83 20 89 2
3 -9 -5 -11 -31 -6 -31 6 -40 3 -62 -20 -32 -35 -31 -40 3 -40 15 0 54 -4 88
-7 59 -7 61 -7 97 28 29 28 36 41 31 60 -4 15 -2 24 5 24 6 0 11 -13 11 -28 0
-39 -63 -99 -110 -105 -30 -3 -29 -4 12 -5 42 -2 49 1 77 35 17 20 34 34 38
30 4 -4 -11 -25 -32 -47 l-40 -40 -89 10 c-102 12 -106 10 -106 -56 0 -27 8
-51 25 -74 24 -33 25 -33 25 -9 0 38 47 78 97 81 22 2 39 6 37 9 -2 3 8 17 21
29 14 13 25 19 25 14 0 -21 52 -11 81 16 29 26 30 31 28 96 -1 40 1 67 7 64 5
-3 9 -13 8 -22 0 -10 6 -18 14 -18 11 0 13 -12 8 -59 -7 -66 -2 -71 82 -71 23
0 42 -4 42 -9 0 -9 -22 -8 -107 5 -33 5 -33 5 -35 67 -2 60 -2 61 -5 12 -3
-40 -11 -57 -36 -82 -31 -33 -64 -42 -83 -23 -8 8 -14 7 -23 -3 -9 -12 -6 -17
19 -27 32 -13 40 -30 15 -30 -8 0 -15 5 -15 10 0 18 -39 10 -50 -10 -6 -12 -7
-20 -1 -20 5 0 11 6 14 13 2 6 8 9 13 4 4 -4 -19 -34 -51 -67 -32 -33 -56 -62
-53 -65 3 -3 24 15 47 41 24 25 46 43 49 40 3 -4 -15 -28 -39 -54 -36 -37 -46
-55 -47 -82 0 -31 0 -32 8 -10 l8 25 1 -27 c1 -16 7 -28 14 -28 7 0 42 29 77
65 35 36 58 65 50 65 -8 0 5 20 30 45 39 39 50 45 86 45 24 0 46 -5 49 -10 4
-7 -7 -8 -34 -4 -35 6 -44 2 -80 -27 -22 -19 -41 -38 -41 -43 0 -4 16 6 36 23
29 26 41 31 67 26 18 -4 54 -7 80 -8 28 -1 47 -7 47 -14 0 -8 -9 -9 -32 -2
-18 5 -56 9 -83 9 -45 0 -55 -4 -85 -35 -19 -19 -29 -35 -24 -35 6 0 21 12 35
26 22 23 29 25 89 21 36 -2 63 -8 61 -13 -1 -5 -6 -8 -10 -7 -4 1 -30 5 -57 8
-46 6 -52 4 -92 -31 -32 -27 -40 -39 -30 -46 17 -11 -125 -148 -143 -138 -8 6
-7 10 3 16 8 5 30 22 48 37 24 21 30 31 22 39 -9 9 -18 6 -35 -10 -25 -23 -47
-29 -47 -11 0 5 -4 7 -10 4 -5 -3 -10 -16 -10 -28 0 -18 2 -19 10 -7 8 13 10
12 10 -2 0 -10 -4 -18 -8 -18 -5 0 -8 -42 -8 -92 0 -89 0 -90 3 -15 2 42 8 77
12 77 5 0 7 -19 4 -42 -4 -34 -3 -41 7 -31 7 6 13 23 13 36 0 28 110 146 120
130 4 -6 -7 -22 -23 -38 -15 -15 -26 -33 -24 -40 3 -6 -2 -17 -10 -24 -16 -13
-15 -16 27 -62 21 -23 21 -29 2 -29 -8 0 -15 5 -15 11 0 7 -12 23 -26 36 -20
18 -24 27 -15 36 16 16 14 32 -3 18 -10 -8 -13 -23 -9 -47 4 -24 1 -40 -10
-52 -9 -9 -15 -31 -15 -48 1 -17 -2 -36 -6 -42 -17 -27 37 7 89 56 31 30 60
51 63 47 4 -4 -17 -29 -47 -56 -50 -46 -60 -67 -17 -34 22 17 76 20 76 5 0 -5
-16 -10 -35 -10 -22 0 -37 -6 -44 -17 -8 -14 -12 -15 -22 -6 -7 7 -17 9 -23 4
-6 -5 -20 -11 -31 -13 -15 -3 -11 -7 18 -17 35 -12 40 -11 61 8 12 12 35 21
49 21 15 0 30 7 33 15 4 8 12 15 20 15 20 0 17 -10 -11 -32 -13 -10 -24 -24
-22 -30 1 -6 -8 -11 -20 -13 -13 -1 -31 -9 -40 -17 -10 -8 -25 -18 -33 -21 -8
-3 -2 -6 14 -6 16 -1 34 6 41 16 11 15 13 15 25 -7 11 -20 10 -24 -6 -33 -11
-6 -31 -10 -46 -8 -16 1 -28 -2 -28 -8 0 -6 -6 -11 -14 -11 -24 0 -28 -18 -12
-47 l15 -28 1 26 c0 36 22 54 49 39 27 -14 26 -18 -3 -13 -13 3 -26 1 -29 -4
-10 -16 -11 -58 -2 -58 6 0 10 11 10 24 1 14 7 27 14 29 10 3 12 -2 7 -22 -5
-22 -3 -26 14 -26 22 0 27 -15 8 -23 -7 -3 0 -6 15 -6 17 -1 26 3 22 9 -4 6
-1 18 6 26 10 12 8 19 -10 37 -22 24 -27 37 -13 37 4 0 17 -16 29 -35 19 -29
21 -38 12 -64 -11 -31 -18 -35 -51 -32 -9 1 -19 -3 -23 -9 -3 -5 -1 -10 5 -10
7 0 9 -7 5 -17 -5 -15 -4 -16 6 -5 7 6 17 12 21 12 13 0 9 -28 -4 -34 -7 -3
-1 -4 14 -1 22 4 27 1 31 -17 2 -13 4 -5 4 16 0 31 6 45 31 67 18 16 32 31 32
33 0 9 -50 -20 -50 -29 0 -5 -7 -19 -15 -29 -12 -16 -18 -17 -27 -8 -10 10 -7
16 10 28 12 8 22 23 22 33 0 12 7 17 23 17 29 -1 37 41 10 51 -24 9 -68 51
-61 58 3 3 20 -9 39 -26 27 -25 35 -29 37 -15 4 18 18 21 27 6 3 -6 -1 -13 -9
-16 -9 -3 -13 -11 -10 -16 4 -5 24 7 45 28 21 21 41 35 45 32 6 -6 -65 -77
-78 -78 -4 0 -5 -6 -2 -14 3 -8 12 -12 20 -9 18 7 19 -38 2 -55 -8 -8 -8 -12
-1 -12 13 0 5 -90 -8 -105 -6 -6 -17 -5 -29 3 -11 7 -20 8 -20 2 0 -5 -10 -19
-22 -31 l-23 -21 23 7 c17 5 22 2 22 -12 1 -15 4 -14 24 9 13 15 26 24 29 21
6 -6 18 34 43 147 9 41 20 79 24 84 5 4 40 2 80 -5 60 -10 73 -10 85 2 12 11
18 87 30 354 23 524 23 522 -3 548 -17 17 -42 24 -110 32 l-87 11 0 109 c0
105 7 141 26 129 5 -3 19 1 31 7 l23 13 -25 6 c-19 5 -32 1 -53 -19 -15 -14
-25 -31 -23 -38 3 -7 1 -13 -4 -13 -6 0 -10 -27 -10 -61 0 -33 -4 -58 -8 -55
-5 3 -7 30 -4 61 3 37 1 55 -7 55 -6 0 -11 -4 -11 -10 0 -5 -5 -10 -11 -10 -6
0 -8 7 -5 16 5 13 2 14 -11 8 -10 -5 -49 -9 -87 -9 l-69 0 -42 48 c-35 40 -43
45 -49 31z m354 -644 c135 -18 122 -2 118 -156 -3 -147 -6 -153 -61 -149 -23
2 -31 7 -32 24 -3 35 -21 47 -35 21 -9 -16 -9 -29 0 -50 8 -19 8 -38 2 -61
-10 -33 -10 -33 -12 -6 -3 39 -4 40 -20 63 -10 14 -32 24 -60 29 -72 12 -72
12 -68 158 3 117 5 130 22 137 11 3 29 5 40 4 12 -2 59 -8 106 -14z"/>
<path d="M3300 2795 c0 -11 -5 -15 -14 -12 -8 3 -22 -3 -32 -14 -19 -21 -19
-21 11 -37 20 -11 20 -12 -2 -18 -23 -6 -31 -28 -14 -39 5 -3 12 4 16 15 3 11
11 20 17 20 6 0 20 7 30 17 16 14 18 14 18 0 0 -9 -9 -19 -20 -22 -11 -3 -20
-10 -20 -15 0 -5 7 -7 15 -4 8 4 15 2 15 -4 0 -5 -7 -12 -15 -16 -8 -3 -15
-15 -15 -27 0 -18 -2 -19 -15 -9 -11 9 -15 9 -15 1 0 -6 7 -14 15 -17 13 -5
14 -18 9 -70 l-6 -64 47 0 c48 0 105 21 125 45 12 15 23 72 23 118 0 37 -35
72 -108 107 -33 16 -54 30 -46 30 28 0 135 -65 152 -95 11 -16 20 -50 20 -75
2 -33 3 -37 6 -16 12 76 -26 140 -106 180 -71 36 -91 40 -91 21z"/>
<path d="M3198 2223 c13 -5 17 -33 4 -33 -5 0 -9 -14 -9 -31 0 -25 4 -30 19
-26 11 3 22 -2 28 -13 13 -24 13 -30 -1 -30 -5 0 -7 5 -4 10 3 6 1 10 -4 10
-6 0 -11 -9 -11 -19 0 -10 -8 -22 -17 -25 -12 -5 -13 -10 -5 -18 13 -13 67 6
58 21 -3 5 0 14 8 20 10 9 15 8 19 -3 4 -9 -9 -24 -34 -40 -39 -27 -46 -43
-30 -74 7 -14 4 -17 -20 -19 -23 -2 -29 2 -27 14 5 25 -18 26 -41 2 -12 -13
-21 -36 -21 -53 l0 -31 21 25 c17 22 19 22 17 5 -2 -16 6 -22 47 -31 28 -7 40
-13 28 -13 -13 -1 -23 -5 -23 -10 0 -22 90 -27 168 -10 32 6 59 20 76 38 48
50 45 142 -6 206 -35 44 -199 137 -240 134 -10 0 -10 -2 0 -6z"/>
<path d="M4976 1765 c-7 -38 -1 -59 15 -49 5 3 7 14 4 25 -4 11 -2 19 4 19 15
0 14 -21 -3 -60 -10 -24 -15 -28 -19 -16 -10 24 -25 19 -42 -14 -19 -37 -19
-50 0 -50 8 0 15 -9 15 -20 0 -22 -16 -27 -22 -8 -7 20 -27 -1 -53 -56 -29
-61 -31 -78 -10 -70 11 5 13 2 9 -10 -5 -13 -9 -14 -20 -5 -20 17 -31 2 -16
-22 11 -18 9 -26 -17 -66 -16 -24 -32 -50 -35 -56 -3 -8 -8 -7 -15 3 -5 8 -13
11 -18 7 -4 -5 -1 -12 6 -17 11 -6 3 -21 -35 -66 -27 -32 -71 -80 -99 -106
-27 -26 -58 -55 -67 -64 -9 -9 -22 -13 -29 -8 -7 4 -10 3 -6 -4 4 -5 -8 -22
-25 -36 -18 -15 -38 -31 -45 -36 -7 -6 -19 -10 -28 -10 -8 0 -15 -7 -15 -16 0
-11 -6 -15 -20 -11 -13 3 -20 0 -20 -8 0 -8 -9 -17 -20 -20 -11 -3 -20 -11
-20 -16 0 -6 -5 -7 -10 -4 -6 3 -13 -1 -16 -9 -3 -9 -17 -16 -30 -16 -13 0
-24 -5 -24 -11 0 -5 -4 -8 -9 -4 -5 3 -16 -2 -24 -10 -9 -8 -23 -15 -31 -15
-9 0 -16 -4 -16 -10 0 -5 -9 -10 -20 -10 -11 0 -20 -5 -20 -11 0 -6 -9 -8 -20
-4 -14 5 -20 2 -20 -10 0 -12 -6 -15 -20 -10 -12 4 -20 2 -20 -5 0 -8 -8 -10
-21 -7 -12 3 -22 0 -25 -8 -3 -7 -14 -11 -25 -8 -10 3 -19 1 -19 -5 0 -5 -8
-9 -17 -8 -10 0 -17 -5 -15 -12 1 -8 -2 -11 -7 -8 -15 10 -23 -12 -16 -45 5
-23 16 -35 42 -46 l36 -14 46 44 c63 59 87 73 183 102 127 38 189 60 249 90
79 40 190 115 196 134 3 9 16 30 28 46 12 17 25 40 29 52 10 30 53 63 83 63
23 0 25 3 21 35 -3 27 0 35 12 35 8 0 24 20 35 45 12 27 26 45 36 45 31 0 82
75 150 221 4 8 12 41 19 72 14 68 -2 131 -32 124 -14 -4 -15 -1 -8 19 7 18 5
29 -7 44 -25 29 -40 25 -47 -15z"/>
<path d="M2390 1725 c0 -8 15 -17 38 -21 51 -10 82 -31 75 -52 -6 -14 -4 -15
9 -5 8 7 19 10 24 6 5 -4 3 -1 -3 7 -18 20 -16 25 11 25 13 0 22 -4 21 -10 -2
-5 -6 -25 -9 -43 -5 -28 -4 -31 8 -19 8 8 14 22 13 33 -1 11 4 19 13 19 11 0
14 -9 12 -32 -2 -23 1 -33 11 -33 11 0 14 -17 13 -75 -1 -44 3 -75 9 -74 6 0
9 24 9 54 -1 30 3 55 7 55 5 0 9 31 9 68 l0 68 -29 2 c-17 1 -73 11 -127 22
-115 24 -114 24 -114 5z"/>
<path d="M4537 1645 c-27 -53 -65 -119 -85 -148 l-36 -52 34 28 33 29 13 -24
c9 -16 13 -18 14 -7 0 21 36 53 49 44 7 -4 3 -17 -12 -36 -22 -30 -22 -31 -3
-45 27 -20 63 -18 75 5 8 14 5 21 -14 31 -14 7 -25 18 -25 23 0 5 10 2 23 -7
12 -9 30 -19 40 -23 10 -3 16 -12 13 -19 -7 -18 8 -18 22 -1 8 10 6 16 -9 26
-14 8 -19 19 -16 32 4 16 1 18 -20 13 -22 -6 -24 -4 -18 15 11 34 -5 47 -26
20 -28 -37 -35 -14 -11 35 25 48 27 66 11 66 -8 0 -9 15 -5 45 4 25 6 45 4 45
-2 0 -25 -43 -51 -95z"/>
<path d="M2920 1632 c0 -50 -11 -73 -30 -67 -10 3 -21 2 -23 -2 -3 -4 -7 -52
-9 -105 -3 -88 -5 -97 -20 -92 -12 3 -18 0 -18 -10 0 -24 38 -19 45 5 7 21 26
22 32 2 5 -15 -26 -31 -68 -36 -35 -4 -79 -26 -79 -40 0 -4 13 2 28 13 26 19
69 19 57 0 -8 -13 36 -23 48 -11 8 8 6 11 -8 11 -16 0 -15 3 8 28 28 29 35 52
16 52 -6 0 -9 7 -5 15 3 8 0 15 -7 16 -7 0 -3 4 8 8 15 6 23 3 31 -11 9 -16
11 -6 12 53 1 40 5 76 9 80 5 5 6 -24 5 -64 -4 -73 8 -90 14 -20 1 21 5 70 9
108 l6 70 -30 12 c-30 11 -31 10 -31 -15z"/>
<path d="M2860 751 c0 -6 5 -13 10 -16 16 -10 11 -22 -12 -30 -19 -6 -20 -8
-6 -12 17 -4 16 -7 -2 -43 -11 -21 -24 -41 -30 -45 -19 -12 -10 -25 18 -25 15
0 48 7 75 15 l47 14 -15 -29 c-17 -33 -20 -64 -5 -55 5 3 14 20 19 38 l9 32 2
-30 c1 -16 6 -39 11 -50 6 -14 7 -1 3 40 -3 33 -10 63 -16 66 -5 3 0 9 11 12
25 6 29 54 6 63 -12 5 -13 9 -4 20 13 16 14 16 -24 32 -33 14 -97 16 -97 3z"/>
<path d="M3260 621 c-51 -6 -55 -8 -58 -33 -3 -22 -8 -27 -25 -25 -18 2 -21
-3 -19 -22 2 -19 0 -22 -12 -12 -11 10 -16 9 -24 -5 -6 -10 -16 -15 -25 -11
-9 3 -19 2 -22 -2 -2 -5 -21 -16 -40 -26 -20 -9 -38 -22 -39 -28 -2 -7 -8 -32
-14 -57 -6 -25 -13 -52 -17 -61 -9 -24 94 -35 133 -15 61 32 113 89 152 166
28 56 49 84 75 100 19 12 35 26 35 31 0 9 -10 9 -100 0z"/>
</g>
</svg>
